<?xml version="1.0" encoding="UTF-8"?>
<svg id="Layer_1" xmlns="http://www.w3.org/2000/svg" version="1.1" viewBox="0 0 177.1 55.2">
  <!-- Generator: Adobe Illustrator 29.6.1, SVG Export Plug-In . SVG Version: 2.1.1 Build 9)  -->
  <defs>
    <style>
      .st0 {
        fill: #000834;
      }
    </style>
  </defs>
  <path class="st0" d="M173.3,29.2c-2-2.1-4.6-3.7-7.2-5.3-.1,0-.3-.2-.4-.3h0s0,0,0,0c-4.3-2.6-8.3-5.1-8.3-8.8s2.5-6,5.8-6c5.2,0,8.3,2.5,9.8,8.2h0s1,0,1,0v-8.3s0,0,0,0h0c-3.3-.9-6.6-1.4-10.3-1.4-7.4,0-10.7,4.7-10.7,9.4s5,8.1,9.8,11.1h0c4.8,3,9.8,6.2,9.8,11.1s-3,7.4-7.7,7.4-7.1-.7-8.8-2.3c-1.5-1.4-2.3-3.6-2.7-7.5h0s-1.1,0-1.1,0v10.8h0c0,0,7.3.5,11.7.5,7.9,0,12.6-4.1,12.6-10.9s-1.1-5.5-3.4-7.9Z"/>
  <path class="st0" d="M148,36.6c-.4,3.3-1.1,5.8-2.6,7.2-1.5,1.4-3.8,2-7.8,2h-2.5c-2.7,0-3.8-.8-3.8-2.7v-14.8c.5,0,1,0,1.5,0,.5,0,1,0,1.5,0,2.1,0,4.3,0,6.1.1,2.3.1,3.5,1.1,4,6.6h0s1.3,0,1.3,0v-14.8h-1.3c-.4,5.1-1.7,6.1-4,6.3-2,.2-4.5.2-7.1.2h-2.1v-14.7c0-1.9,1.1-2.7,3.8-2.7h1.2c7.9,0,9.5,2,10.5,8.2h0s1.3,0,1.3,0V7.8h-25.8v1.3h0c3,.3,4,1,4,3,0,0,0,30.2,0,31.1,0,2-1.9,2.5-1.9,2.6-2.1.6-3.7.4-5.2-.5-1.4-.9-2.6-2.4-3.9-4.9l-7.8-13.5c3-.6,5.5-1.8,7.3-3.5,1.8-1.7,2.7-3.8,2.7-6.1,0-5.8-4.7-9.3-12.2-9.3h-15.5v1.3h0c1.6.2,2.6.4,3.2.9.6.4.8,1.1.8,2.1v31.1c0,2-1.8,2.5-1.8,2.5-3.7,1.2-6.4-.9-7.3-3.6l-12-34.3h0s-1.2,0-1.2,0l-11.8,33.9c-1.3,3.3-3.1,4.1-5.5,4.4h0v1.3h12.3v-1.3h0c-2.7-.2-4-.6-4.5-1.3-.4-.6-.4-1.4,0-3l1.5-5h14l1.7,5.2c.4,1.3.5,2.1.1,2.6-.5.8-2.3,1.2-5.3,1.4h0v1.3h30v-1.3h0c-2.1,0-3.5-.4-4.3-.9-.7-.4-1-1-1-2v-15.8h1.1c1.6,0,2.6.5,4,3.2l5.9,10.9c1.2,2.3,2.5,3.8,4,4.8,1.3.8,2.9,1.2,4.9,1.2h30.4c0,0,0,0,0,0v-10.8h-1.3ZM112.2,17.6c0,2.5-.6,4.3-1.9,5.5-1,1-2.5,1.7-4.5,2.1-1.8.4-4,.5-6.9.5v-13.7c0-1.9,1.1-2.7,3.8-2.7h1.9c4.7,0,7.7,3.2,7.7,8.3ZM77.2,35.3h-12.9l6.5-19.5,6.4,19.5Z"/>
  <path class="st0" d="M3.9,36.4h0c0,0,1.9-4.5,3-6.5h0s0,0,0,0c0,0-1-2.1-1.3-5.1-.3-2.8,0-6.9,2.9-11,0,0,1.3-2,4-3.8,2.5-1.7,6.8-3.6,12.8-3.1h0s1.6-1.3,1.6-1.3h0s-2.5-.7-6.1-.6c-2.1,0-4.1.4-6,.9-2.4.7-4.6,1.8-6.7,3.2-.8.4-5.3,3.8-7.1,9.9-.7,2.4-.9,5-.6,7.7.4,3.1,1.5,6.3,3.4,9.6h0Z"/>
  <path class="st0" d="M48.7,25.4h0s0,0,0-.1c-.3-1.5-1.5-5.3-4.6-9.3,0,0,0,0,0-.1.8-2.7,1.2-4.9,1.3-6.2.4-3.7-.2-6.3-1.7-7.7-1.9-1.7-5.1-1.6-9.6.4-2.3,1.1-4.8,2.6-7.3,4.6-2.3,1.9-4.7,4.2-7.1,6.8-4.4,4.9-8.6,10.8-12.1,17-.6,1.1-2.2,4.1-3.4,7.9-1.3,3.8-1.8,7.2-1.6,10.2,0,0,0,0,0,0,.4,2.3,1.5,4,3.3,4.8.7.3,1.4.4,2.3.4.8,0,1.6-.1,2.5-.4,2.3-.6,5-2,8.1-4.1h0s-1.8-.6-1.8-.6h0s0,0,0,0c0,0-1.6,1-3.4,1.8-1.7.7-4.1,1.3-5.6.2-1.8-1.3-2-4.7-.6-10.1.3.3,2.9,3.1,7.2,5.4,2.7,1.4,5.5,2.5,8.4,3,3.6.7,7.2.6,10.9-.2h0s.1,0,.4,0c.2,0,.6-.2,1.2-.3.9-.3,2.3-.8,3.8-1.6,1.5-.8,2.8-1.7,4-2.8,1.5-1.3,2.7-2.7,3.6-4.3,2.4-4,3-8.9,1.9-14.6h0ZM42.9,14.7c-.3-.3-1.2-1.4-2.8-2.8-2.2-1.9-4.7-3.4-7.3-4.5.2-.2,1.8-1.1,3.5-1.8,1.8-.7,4.3-1.3,5.8-.2,1.7,1.3,2,4.3.7,9.2ZM41.9,38.7c-.7.7-2.1,2.1-4.4,3.3-3.5,1.8-7.4,2.4-11.6,1.9.7-.6,11.1-10.6,16.9-24.2h0s-1-1.5-1-1.5h0c0,0-1.3,3.5-4.1,8.3-2.6,4.5-7.1,11-13.6,17.2-4.9-1-8.5-3.3-10.7-5.1-2.3-1.9-3.5-3.5-3.6-3.7.1-.2,2.1-4.3,5.7-9.5,3.4-4.9,8.9-11.8,16-17.1.2,0,2.1.7,4.6,2.2,2.4,1.5,5.7,4.2,8,8.7h0s0,0,0,0c1,1.8,5.5,11.4-2.1,19.3,0,0,0,0,0,0Z"/>
</svg>