<svg id="logo" xmlns="http://www.w3.org/2000/svg" viewBox="0 0 222 42.12"><defs><style>.cls-1{fill:#fff;fill-rule:evenodd;}</style></defs><path class="cls-1" d="M17.84,41.13v-14a5.6,5.6,0,0,0-1.15-3L9.21,32Zm-9.5-10,7.48-7.9a4.44,4.44,0,0,0-2.59-.91H0Z"/><path class="cls-1" d="M13.08,18.83a4.55,4.55,0,0,0,2.84-.91L8.25,10,0,18.83Zm4.26-4.56V0l-8,8.81,7.39,7.89a5.88,5.88,0,0,0,.57-2.43"/><path class="cls-1" d="M21.89,16.7l7.9-7.89L21.31,0V14.27a5.87,5.87,0,0,0,.58,2.43m3.8,2.13H39.15L30.67,10l-7.61,7.9a3.49,3.49,0,0,0,2.63.91"/><path class="cls-1" d="M29.79,32l-7.61-7.9a5.3,5.3,0,0,0-.87,3v14Zm9.36-9.72H25.69a4.6,4.6,0,0,0-2.63.91l7.61,7.9Z"/><path class="cls-1" d="M59.67,36.4c-.29-1.2-.87-2.1-2.31-2.1-2,0-2.89,1.5-2.89,3.61,0,1.8.86,3.61,3.18,3.61,1.15,0,1.73-.6,2-1.81H60a3.94,3.94,0,0,1-.29,1.81,5.27,5.27,0,0,1-2.31.6c-2.6,0-4.34-1.5-4.34-4.21a4.09,4.09,0,0,1,4.34-4.21c1.15,0,1.44.6,2.6.6v2.1Z"/><path class="cls-1" d="M65.86,35.26h0l-1.14,3.43h2Zm-1.71,5.3c0,.31-.28.62-.28.94s.57.31.85.31H65v.31H62.44v-.31h0a1.42,1.42,0,0,0,1.14-.63l1.71-5.61c0-.31.29-.94.29-1.25.28-.31.86-.31.86-.62h.29V34l2,6.24c.28.31.28.93.57,1.25,0,.31.28.31.57.31h0v.31H67v-.31h0c.29,0,.58,0,.58-.31v-.63L67,39.31H64.72Z"/><path class="cls-1" d="M74.85,40.9c0,.92.31.92.94.92h.32v.3H72.35v-.3h0c.31,0,.93,0,.93-.92V35.41a.81.81,0,0,0-.93-.91h0v-.31h3.44c1.57,0,2.5.61,2.5,2.14a2.19,2.19,0,0,1-2.18,2.44h-1v-.31h.32c.94,0,1.25-.91,1.25-2.13,0-.92-.31-1.83-1.57-1.83h-.31Z"/><path class="cls-1" d="M80.28,41.82h.29c.28,0,.86,0,.86-.61v-6.1c0-.61-.58-.61-.86-.61h-.29v-.31h3.47v.31h-.29c-.29,0-.58,0-.58.61v6.1c0,.61.29.61.58.61h.29v.3H80.28Z"/><path class="cls-1" d="M87.37,34.63c-.58,0-.58.31-.86.94h-.29v-.94c0-.31.29-.62.29-.93h0a1,1,0,0,0,.86.31H92.8c.29,0,.57,0,.57-.31h.29v1.87l-.29.31c0-.62-.28-1.25-.86-1.25H90.8v6.24c0,.94.28.94.85.94h0v.31H88.23v-.31h.28c.57,0,.86,0,.86-.94V34.63Z"/><path class="cls-1" d="M98.67,35.26h0l-1.18,3.43h2.35Zm-1.47,5.3a1.17,1.17,0,0,0-.3.94c0,.31.3.31.89.31h0v.31H95.14v-.31h0a1.5,1.5,0,0,0,1.18-.63l1.76-5.61c0-.31.29-.94.29-1.25.3-.31.88-.31,1.18-.62h0s0,.31.29.31l2,6.24a2,2,0,0,0,.3,1.25c0,.31.3.31.59.31h.29v.31H99.84v-.31h0c.29,0,.88,0,.88-.31a1.15,1.15,0,0,1-.29-.63l-.59-1.56H97.49Z"/><path class="cls-1" d="M107.51,41.21a.66.66,0,0,0,.61.61h1.54a1.61,1.61,0,0,0,1.22-.61,1.12,1.12,0,0,0,.31-.92h.31c0,.61-.31,1.22-.31,1.83h-6.14v-.3h0c.62,0,.93,0,.93-.61v-6.1c0-.61-.31-.61-.93-.61h0v-.31h3.69v.31h-.31c-.62,0-.92,0-.92.61Z"/><path class="cls-1" d="M124.27,40.06l2.53-5.87h2.25v.3h-.28c-.28,0-.84,0-.84.58V36l.28,5c.28.58.56.58,1.12.58v.3H126v-.3c.56,0,.84,0,.84-.29v-.59l-.28-4.7h0L124,42.12h-.28L120.9,36h0l-.29,5c0,.29,0,.58.29.58h.84v.3h-2.81v-.3h.28c.84,0,.84-.29.84-1.17l.28-2.94a6,6,0,0,0,.28-2.05c0-.59-.56-.88-1.12-.88h0v-.3h2.25Z"/><path class="cls-1" d="M135.24,35.26h0l-1.14,3.43h2Zm-1.71,5.3c0,.31-.29.62-.29.94s.58.31.86.31h0v.31h-2.29v-.31h0c.57,0,.86-.31.86-.63l1.72-5.61a2.51,2.51,0,0,0,.57-1.25c.28-.31.86-.31.86-.62h.28V34l2,6.24c.29.31.29.93.57,1.25,0,.31.29.31.58.31h0v.31H136.1v-.31h.29c.28,0,.57,0,.57-.31a1,1,0,0,0-.29-.63l-.28-1.56h-2.57Z"/><path class="cls-1" d="M148.92,39.77h0V35.66c0-.88-.58-1.17-.86-1.17h-.29v-.3h2.87v.3h-.29c-.29,0-.86,0-.86,1.46v6.17h-.29l-5.75-6.46v4.7c0,.88.29,1.17,1.15,1.17h0v.3h-2.88v-.3H142c.57,0,.86-.29.86-1.17v-4.7c0-.88-.57-1.17-.86-1.17h-.29v-.3H144Z"/><path class="cls-1" d="M156.27,35.26h0l-.86,3.43h2Zm-1.44,5.3a1.23,1.23,0,0,0-.28.94c0,.31.57.31.86.31h0v.31h-2.29v-.31h0c.29,0,.86-.31.86-.63l1.71-5.61c.29-.31.29-.94.58-1.25s.57-.31.86-.62h.28V34l2,6.24c0,.31.28.93.28,1.25a1,1,0,0,0,.86.31h0v.31h-3.14v-.31h.29s.57,0,.57-.31a1,1,0,0,0-.29-.63l-.28-1.56h-2.58Z"/><path class="cls-1" d="M170.08,36.1a2.37,2.37,0,0,0-2.64-1.8,3.06,3.06,0,0,0-2.94,3.31c0,2.1.88,3.91,2.94,3.91h1.46V39.41c0-.3-.58-.3-.88-.3h-.29v-.6c.59,0,1.17.3,1.76.3s.88-.3,1.47-.3v.6h0c-.59,0-.59,0-.59.3v2.11h0a8.51,8.51,0,0,1-2.93.6c-2.65,0-4.41-1.5-4.41-4.21a4.13,4.13,0,0,1,4.41-4.21c.58,0,1.17.3,1.76.3.29,0,.58.3,1.17.3v1.8Z"/><path class="cls-1" d="M172.94,41.82h.3c.29,0,.87,0,.87-.61v-6.1c0-.61-.58-.61-.87-.61h-.3v-.31h5.86V36h-.3c-.29-.61-.29-1.22-1.46-1.22h-1.46v3.05h1.17c.58,0,.88-.61.88-1.22h.29v2.75h-.29c0-.61,0-1.22-.88-1.22h-1.17V40.9c0,.92.58.92,1.17.92,1.46,0,2.05-.31,2.34-1.53h.29c0,.61-.29,1.22-.29,1.83h-6.15Z"/><path class="cls-1" d="M187.2,40.06l2.54-5.87H192v.3h0c-.57,0-1.13,0-1.13.58V36l.56,5c0,.58.28.58.85.58v.3H188.9v-.3c.55,0,1.12,0,1.12-.29v-.59l-.28-4.7h-.29l-2.52,6.17h-.29L184.11,36h0l-.56,5a1,1,0,0,0,.28.58h.85v.3h-2.82v-.3h.28c.84,0,.84-.29.84-1.17l.57-2.94V35.37a.92.92,0,0,0-.84-.88h-.28v-.3h2.25Z"/><path class="cls-1" d="M194.75,41.82H195c.29,0,.88,0,.88-.61v-6.1c0-.61-.59-.61-.88-.61h-.29v-.31h5.56A4,4,0,0,0,200.6,36H200c0-.61,0-1.22-1.17-1.22h-1.47v3.05h1.17c.59,0,.88-.61.88-1.22h.29v2.75h-.29c0-.61,0-1.22-.88-1.22h-1.17V40.9c0,.92.59.92,1.17.92,1.47,0,2-.31,2.34-1.53h.3a3.93,3.93,0,0,0-.3,1.83h-6.14Z"/><path class="cls-1" d="M210.86,39.77h0V35.66c0-.88-.57-1.17-.86-1.17h-.29v-.3h2.87v.3h-.28c-.29,0-.86,0-.86,1.46v6.17h-.29l-5.76-6.46v4.7c0,.88.29,1.17,1.15,1.17h0v.3h-2.87v-.3H204c.58,0,.86-.29.86-1.17v-4.7c0-.88-.57-1.17-.86-1.17h-.28v-.3H206Z"/><path class="cls-1" d="M215.71,34.63c-.85,0-.85.31-.85.94h-.29V33.7h.29c.28.31.28.31.85.31h5.43c.29,0,.57,0,.57-.31H222v1.87l-.57.31c0-.62,0-1.25-.57-1.25h-2v6.24c0,.94.58.94,1.15.94h0v.31h-3.43v-.31h0c.57,0,1.14,0,1.14-.94V34.63Z"/><path class="cls-1" d="M60.67,23.72c0,1.81,0,3,3.43,3,4.3,0,5.73-3,5.73-5.43,0-5.73-3.15-6.94-6.87-6.94H60.67Zm0-10.56H62.1c3.15,0,5.73-1.2,5.73-6,0-4.52-2.58-5.43-5.44-5.43-.57,0-1.14.3-1.72.3ZM53.52,27c2,.3,3.43-.3,3.43-2.72V4.42C57,1.7,55.52,1.7,53.52,1.7V.5c1.14,0,2.29.3,3.14.3h1.15C60.1.8,61.53.5,62.67.5c2.86,0,8.87.9,8.87,6.33,0,3.92-3.14,5.73-6,6.33v.31c2.58-.31,8.3,1.81,8.3,7.24,0,4.22-3.43,7.54-10,7.54-1.72,0-3.43-.31-5.44-.31-1.43,0-3.15.31-4.86.31Z"/><path class="cls-1" d="M87,17.24c3.44,0,5.44-1.48,5.44-4.75,0-2.68-1.72-3.87-4.86-3.87h-2v8.62Zm-4.86-6.83c0-1.49-1.15-1.79-2.86-1.79V7.43H89.87c3.44,0,6,1.79,6,5.06,0,2.38-1.43,4.16-4.29,5,4.29,7.73,5.44,8.92,8,9.52v1.19a6.79,6.79,0,0,0-2.29-.3,9.33,9.33,0,0,0-2.86.3c-1.43-2.09-4-6.25-6-9.82H85.58v6.84c0,1.79,1.15,1.79,3.15,1.79v1.19a26.56,26.56,0,0,0-4.87-.3,22,22,0,0,0-4.57.3V27.06c1.71,0,2.86-.3,2.86-1.79Z"/><path class="cls-1" d="M108.05,10.41c0-1.49-1.19-1.79-3-1.79V7.43H115V8.62c-2.09,0-3.3.3-3.3,1.79V25.27c0,1.49,1.21,1.79,3.3,1.79v1.19a30.85,30.85,0,0,0-5.1-.3,24.3,24.3,0,0,0-4.81.3V27.06c1.81,0,3-.3,3-1.79Z"/><path class="cls-1" d="M141.48,13h-.86c-1.15-2.42-2-4.84-6.34-4.84-4.6,0-8.35,2.72-8.35,9.69,0,3.94,2.3,9.69,8.64,9.69a8,8,0,0,0,2.88-.61c0-.6.29-3,.29-3.33,0-2.42-.58-3-3.17-3V19.35h8.64v1.21c-2,0-2.31,0-2.31,1.52V24.8c0,.91,0,1.52.58,1.82v.91a29,29,0,0,1-8.35,1.21c-6.62,0-11.23-4.84-11.23-10.9,0-6.66,5.18-10.9,11.52-10.9a22.62,22.62,0,0,1,4,.3c.29,0,3.17.61,3.74.61Z"/><path class="cls-1" d="M157.42,10.49h0l-2.87,8.58h6Zm2.87,16.57h.29c1.15,0,2.29-.29,2.29-.89s-.28-.88-.57-1.48l-1.44-4.14H154l-.86,2.66a7.26,7.26,0,0,0-.57,2.67c0,.89,1.14,1.18,2,1.18h.58v1.19a20.8,20.8,0,0,0-4.3-.3,11.27,11.27,0,0,0-3.16.3V27.06c2,0,2.58-.89,2.87-1.77L156.28,9.9a2.34,2.34,0,0,0,.57-1.19c0-.29,0-.59-.29-.59l3.16-1.18L166,24.69c.57,1.78,1.15,2.37,3.44,2.37v1.19a25.14,25.14,0,0,0-4.59-.3,22.22,22.22,0,0,0-4.59.3Z"/><path class="cls-1" d="M181.13,24.08c0,2.38,1.45,2.68,3.2,2.68,4.07,0,9.31-1.19,9.31-8.62,0-5.36-2.33-9.22-7.86-9.22h-4.65Zm-3.5-13.67c0-1.49-1.16-1.79-3.2-1.79V7.43h11.35c8.15,0,11.94,5.35,11.94,10.11,0,8-6.11,10.71-12.23,10.71-1.74,0-3.78-.3-5.53-.3a36,36,0,0,0-5.53.3V27.06c2,0,3.2-.3,3.2-1.79Z"/><path class="cls-1" d="M220.56,28.25a83,83,0,0,0-8.63-.3,67.29,67.29,0,0,0-7.77.3V27.06c1.73,0,2.88-.3,2.88-1.79V10.41c0-1.49-1.15-1.79-2.88-1.79V7.43H219.7l.28,4.46h-.86c-.57-2.67-1.44-3-5.46-3h-3.17v8h3.45c2,0,2.88-.3,2.88-3H218v6.84h-1.15c0-2.38-.57-2.67-2.88-2.67h-3.45v6.24c0,1.78,1.15,2.38,4.32,2.38,4.31,0,4.6-.6,6-3.27H222Z"/></svg>