<svg height="18" viewBox="0 0 137 18" width="137" xmlns="http://www.w3.org/2000/svg"><g fill="#fff" fill-rule="evenodd" transform="translate(0 -1)"><path d="m136.029781 14.5873504c-.082524.7607214-.236421 1.5113447-.457229 2.244016-.02788.0863946-.08141.1615691-.156128.2131815-.167279.1009807-5.386387.3029421-6.0332.2580618v-1.4698304-5.1612367c.501838 0 1.115194-.0673205 1.918134-.0673205.440502.0134641.879888.0516123 1.315929.1122008.08587.0628324.14386.1537151.167279.2580618.062451.2120595.104829.4297291.122672.6507646h1.014826v-2.1430352l.05576-1.12200798h-1.014827c-.020073.21991356-.06022.43870512-.121556.65076462-.025649.09985871-.084754.18737534-.168394.24684176-.554252.07629654-1.112964.11668883-1.672791.12342088h-1.69398v-2.52451795c-.013382-1.15791224.042377-2.31582447.166164-3.46700466.736028 0 5.352932.1683012 5.465566.24684176.069142.06058843.117096.14361702.133823.23562167.08587.57895612.123787 1.16464428.110405 1.75033245h.936763l.457229-3.74750665h-12.713212v1.02102726c.583246-.00112201 1.165378.07405253 1.729666.2244016.079179.03478224.142745.0987367.177316.17952127.131592.54305186.188467 1.10181184.167279 1.66057181v2.35621676 5.4305186c0 .6283245 0 1.6269116-.100368 3.0182015-.012267.5475399-.053529 1.0939578-.122671 1.6381316-.34571.271526-.720416.5037816-1.115194.695645v.6507646h11.977184l.423774-4.1850898z"/><path d="m28.8058593 6.05463576 2.5085154 6.19122514h-2.4103561-2.4976088zm-2.1704112 11.70074504c-.5671426.0257036-1.1353759-.0469371-1.6796147-.2123344-.130879-.0927567-.2017719-.2514487-.185412-.4134934.1265165-.7107616.3315603-1.4036424.610769-2.0674669l.5235163-1.4416391h6.020437l1.0034062 2.6485927c.147239.3084437.2388543.6414735.2726647.9834437.0076346.1396938-.0654395.2704471-.185412.3352649-.5235163.1184603-1.0568484.1743378-1.592362.1676325v.9946192h7.3619475v-.9946192l-.5126096-.067053c-.2312197-.0022351-.4613488-.0290563-.6871151-.0782285-.0883434-.0324089-.1690522-.0826986-.239945-.1452814-.0872527-.0927566-.1603269-.1989239-.2181318-.3129139l-.4689833-1.1175497-.7307415-1.642798-5.2678824-12.5165563h-1.6578015l-1.0361259 2.7156457-3.0538449 7.7334437c-.5780492 1.4639901-.9706864 2.4474338-1.1779116 2.9391556-.4471702 1.0616722-.7089283 1.6763245-.796181 1.8327815-.0730742.136341-.1646895.2603891-.2726647.3687914-.0916154.0737583-.195228.1307533-.3053845.1676324-.3610081.0637004-.7252882.1050497-1.0906589.1229305v.9946192h5.4532944z"/><path d="m68.9757053 17.2631171c-.0131589.048193-.0350904.0941444-.0657946.1344919-.0888227.100869-.1973837.1804434-.3180071.2353609-.2763373.1737187-.5614472.330626-.8553297.4707217v.6164213s11.6346765.067246 11.8649576 0l.4715279-4.3934027h-.9869189c-.1425549.7845362-.2960756 1.4794111-.4605621 2.0958324-.0307041.1636319-.0975953.3171768-.1973838.4483064-.0657946 0-5.9105472.2913992-5.9105472.2913992v-2.0510018-3.362298-3.48558223-3.36229798c-.0021932-.49986164.0339938-.99748174.1096576-1.49061878.0263179-.1019897.0943056-.18716792.186418-.23536086.5329362-.16699413 1.0878039-.24656851 1.6448648-.23536085v-1.0647277h-7.5225147v1.120766c.6085999-.03362298 1.2171999.0459514 1.7983854.23536085.0888227.04258911.1535207.1255258.1754522.2241532.1250098.83833297.1765488 1.68563206.1535207 2.53293115v4.6960095 4.483064c0 1.2776732-.0877261 1.8940945-.0877261 2.0958324"/><path d="m116.081017 16.4000332c-.039247.1600215-.10684.3110908-.196237.4476127-.065412 0-4.80781.3468999-5.887114.2909483v-2.0478283-3.3570955-3.48018897-3.35709549c-.003271-.49908819.032706-.99593833.10902-1.48831233.030526-.09959384.097029-.18352122.185335-.23499669.52439-.15554542 1.068403-.22828249 1.613506-.21261604v-1.08546088h-7.435207v1.11903183c.605064-.05035643 1.214489.01007129 1.79884.17904509.086126.04588031.149358.12756963.174433.22380637.125374.85605935.187516 1.71995192.185335 2.58496353v4.68874338 4.4761273c0 1.2756963-.076314 1.9471154-.10902 2.1485411.00436.0447613.00436.0895226 0 .1342838-.091578.0973558-.197328.1768071-.31616.2349967-.276913.174569-.564727.3312334-.861263.4699934v.6154675h11.806934l.457887-4.3866048h-.970284c-.228943.7273707-.381572 1.4211704-.556005 2.036638"/><path d="m99.4657534 1.875h-2.8627268l-4.1642675 7.8697535-4.7399066-7.8697535h-4.4979393v1.02306795h.8076624c.3712375.00449701.715958.19899234.9170449.51715523l4.6625654 7.54372082c.2209747.3417722.3745521.7228931.4529981 1.1242505v2.248501c0 .6408228 0 1.4277982-.0673973 2.3384411.0121536.2507078-.0331462.5002914-.1314799.7307628-.0850753.0933128-.1977723.1562708-.3204133.1798801-.5248148.067455-1.0518394.1011825-1.5810737.1011825v1.068038h7.7341133v-1.068038c-.52371.0112425-1.0485248-.017988-1.5689202-.08994-.1358994-.0326033-.2596452-.1068038-.3524546-.2136076-.1115922-.2709444-.1712553-.561001-.1767797-.8544304-.0662924-.7476266-.0917045-1.4986259-.0773411-2.248501v-1.9561959c-.0099439-.3012991.0121536-.6025982.0651875-.8994004.0497193-.3012991.1347946-.596977.2552257-.8769153.2651696-.5059128.9501911-1.64140578 2.0550644-3.37275155.9833373-1.5739507 2.0981545-3.84493671 2.738981-4.09227182.2762183-.08769153.5623805-.1292888.8518573-.12366755z"/><path d="m53.6538422 9.5082954c-.4494087.16599178-.9242139.24562297-1.4023318.23552888h-1.7446332c0-.77388061 0-2.24313219.0662519-4.48626437 0-1.02062515.0552099-1.67113348.0772939-1.951525.3643854-.0661724.7342918-.09981938 1.1041982-.10094095.5984755-.03140385 1.1969509.02916072 1.7777592.17945057.5267026.1985172.9783197.55966148 1.291912 1.03184081.3654896.53947329.5476823 1.18549536.5189731 1.83936839.0187714.69985724-.1446499 1.39298509-.4748052 2.00760331-.2760496.5125557-.7000617.92753515-1.2146181 1.18886005zm6.5147697 7.8509626c-.1325038-.1345879-.4968892-.6168613-1.1041983-1.4131732-.0441679-.0527136-.3091755-.4564774-.7950227-1.2112914l-1.8219271-2.8039152-.1325038-.2243133c0-.0897252-.1987557-.3140385-.4527213-.6953709-.2539656-.3813325-.4748052-.7402337-.6735609-1.12156613 1.0732807-.34432079 2.0262038-.99819382 2.7384116-1.88423103.6017881-.74808459.9363602-1.68122758.9496105-2.64689598.0154588-.74584145-.2142144-1.47598098-.6514769-2.07489727-.3930946-.5361086-.9474021-.92977829-1.5790035-1.1215661-.929735-.21982695-1.8837622-.3140385-2.8377895-.28039152h-8.7231662v.98697816c.5929545.00224313 1.1837005.08523902 1.7556752.24674454.0806065.04374108.1424416.11552131.1766718.2018819.1192534.59443003.1678381 1.20007572.1435457 1.80572141v2.54595503 4.48626439l-.0883358 3.5217175c-.0099378.4766656-.049689.9533312-.1214618 1.4243889-.0066252.118886-.0397512.2344074-.0993779.3364699-.0530015.0650508-.128087.1087919-.2097977.1233722-.5289109.0919685-1.0644471.1334664-1.6010874.1233723v1.0654878h7.530632v-1.0654878c-.457138.0067294-.9153803-.0157019-1.3692058-.067294-.1236702-.0213097-.2429236-.0628077-.3533434-.1233722-.0629393-.0482274-.1159408-.1099135-.1545878-.1794506-.0806065-.2837562-.1214618-.5787281-.1214618-.8748216 0-.2243132 0-1.121566-.0772939-2.8263465v-3.0057971h.9054426c.272737-.0011216.5278068.1323448.6846029.3589011.4306373.628077 1.3250379 1.9403094 1.866095 2.8487779l2.528614 4.2507355c.1291912.211976.2263607.4430186.2870916.6841553h4.5382548v-.9981938c-.2539656.0078509-.5079312-.025796-.7508548-.100941-.1457542-.0717802-.2771538-.170478-.3864694-.2916072z"/><path d="m2.4885995 16.3339349c.74310671.6999155 1.61650552 1.2566175 2.57271712 1.6367254 1.40671314.5351662 2.90728076.7989805 4.41668175.775291.99154503.0258431 1.98198593-.0721451 2.94813503-.2907341 1.0732537-.3111932 2.0758405-.8151323 2.9591768-1.4859744v-.9691138c-.7464192.3887223-1.5347969.6956083-2.351883.9152741-.7475234.1755173-1.516026.2627375-2.2856328.2584304-1.05779531.0226126-2.11006973-.1647494-3.09167725-.5491645-.70114823-.3294987-1.3371504-.7774446-1.87708975-1.3244555-.66139809-.6514598-1.17373317-1.4342883-1.50167179-2.2935692-.39198051-1.0326445-.58410616-2.1288199-.56312692-3.23037918-.13360463-1.74871193.44608485-3.47911838 1.61208883-4.81326499 1.15606645-1.15862933 2.7604261-1.7842461 4.41668175-1.7228689.86125293-.02907341 1.72029753.10660252 2.52855033.39841344.6757523.27673581 1.2852544.68699397 1.7887561 1.20600823.0662502.51686067.0993753 1.1952403.1214587 2.03513888h.9275032l.5300018-3.89799088s-2.2083409-.69991549-3.0364687-.85066652c-.933024-.16044217-1.8792981-.24012485-2.82667631-.23689447-2.62240479-.15828858-5.20726778.66976528-7.22127466 2.31510508-1.69490162 1.52581577-2.6257173 3.69555379-2.55063371 5.94389771-.01214588 1.36322.28156346 2.7113649.86125294 3.9518305.40854306.8269771.95731577 1.5807322 1.62313054 2.2289617"/></g></svg>