<svg width="763" height="792" viewBox="0 0 763 792" fill="none" xmlns="http://www.w3.org/2000/svg">
<path fill-rule="evenodd" clip-rule="evenodd" d="M564.702 2.05968C562.094 6.73068 559.588 12.6697 554.868 25.3677C552.21 32.5177 545.72 49.9547 540.447 64.1177C535.173 78.2797 526.628 101.23 521.458 115.118C516.287 129.005 505.753 157.243 498.048 177.868C483.322 217.289 472.352 246.71 453.863 296.368C440.549 332.128 437.919 338.314 432.362 346.94C424.365 359.354 415.536 364.491 399.478 366.075C387.644 367.242 384.583 368.203 385.046 370.604C385.777 374.401 388.348 374.576 441.915 374.47C486.988 374.382 494.057 374.168 494.878 372.868C497.058 369.416 492.885 366.914 484.858 366.861C477.825 366.814 471.494 363.998 469.424 359.996C465.381 352.178 467.911 340.408 482.515 299.083C488.874 281.09 494.434 265.243 494.871 263.868C496.046 260.173 554.333 87.4267 556.871 80.1177C558.969 74.0757 561.025 72.2537 562.222 75.3727C562.539 76.2007 571.858 102.638 582.929 134.123C594 165.608 604.35 194.968 605.929 199.368C607.507 203.768 612.43 217.943 616.87 230.868C621.309 243.793 626.923 259.768 629.346 266.368C633.489 277.655 651.922 327.342 659.453 347.522C664.826 361.917 664.836 362.273 659.989 366.747C655.315 371.062 654.96 372.317 657.962 373.924C660.428 375.243 699.035 376.771 731.385 376.829C749.749 376.861 753.783 376.609 755.635 375.311C760.763 371.72 757.707 369.381 746.858 368.594C732.066 367.521 721.095 361.923 712.714 351.173C702.586 338.181 695.943 323.91 678.36 277.368C675.451 269.668 668.258 250.768 662.375 235.368C647.472 196.359 638.76 173.28 606.692 87.8677C591.309 46.8927 577.29 10.4427 575.54 6.86768C572.715 1.09668 572.001 0.332683 569.174 0.0596834C566.703 -0.180317 565.703 0.267683 564.702 2.05968ZM21.5514 2.99968C19.3094 3.85668 18.8074 4.60468 19.0514 6.71968C19.3484 9.28368 19.6614 9.40368 28.8584 10.5027C34.0834 11.1277 40.5604 12.2097 43.2524 12.9077C49.6814 14.5757 56.1664 20.7097 58.0104 26.8677C59.1144 30.5537 59.3294 54.8697 59.1954 161.368C59.0314 292.099 58.3494 324.075 55.3624 341.194C53.4984 351.872 51.9654 355.761 48.2674 359.19C45.1244 362.104 42.6554 362.818 32.5414 363.735C24.8694 364.431 22.3514 366.269 24.4824 369.618C25.5004 371.219 27.7554 371.35 50.9764 371.153C73.6624 370.96 111.449 371.635 259.358 374.874C305.275 375.88 314.209 375.627 320.088 373.152C326.487 370.459 329.193 362.543 333.348 334.368C334.726 325.018 335.855 315.263 335.856 312.689C335.86 303.839 330.002 302.703 327.841 311.135C324.286 325.007 320.26 334.288 315.442 339.715C307.733 348.399 282.713 351.989 216.467 353.915C178.063 355.032 140.372 353.975 128.714 351.454C120.325 349.639 115.001 346.934 111.119 342.513C102.863 333.11 101.844 318.271 101.91 208.473C101.975 101.625 103.161 36.7547 105.202 28.4937C108.067 16.8957 113.059 13.4797 129.864 11.6177C138.546 10.6557 141.393 9.96968 142.233 8.63668C143.079 7.29368 142.927 6.50768 141.555 5.13668C139.912 3.49368 136.208 3.36268 89.5724 3.29468C61.9544 3.25468 35.9834 2.93068 31.8584 2.57468C27.3014 2.18168 23.2574 2.34868 21.5514 2.99968ZM179.858 408.54C151.128 410.597 124.059 416.845 103.604 426.139C81.5584 436.155 68.8624 444.826 52.7944 460.84C36.6544 476.925 25.1774 493.652 15.7834 514.779C2.65138 544.315 -0.771618 565.014 0.137382 609.368C0.552382 629.569 0.920382 633.669 3.16738 643.056C13.8944 687.873 36.5484 724.463 67.8584 747.54C98.1854 769.893 131.839 782.694 176.858 789.002C189.599 790.788 241.1 790.836 253.358 789.075C278.352 785.482 303.995 778.233 317.495 770.942C323.014 767.962 324.592 766.564 325.552 763.802C326.385 761.405 326.773 749.343 326.837 723.868C326.958 675.845 328.418 634.029 330.236 626.494C332.885 615.513 337.913 611.779 352.858 609.694C361.22 608.527 362.394 608.118 362.656 606.28C362.82 605.132 362.204 603.57 361.287 602.809C359.43 601.268 356.968 601.194 325.358 601.729C313.808 601.924 291.308 601.749 275.358 601.339L246.358 600.594L244.367 602.826L242.375 605.059L244.727 606.963C246.483 608.385 248.674 608.868 253.363 608.868C260.914 608.868 272.055 612.082 276.727 615.608C278.58 617.007 281.055 620.225 282.227 622.76C284.315 627.276 284.364 628.567 284.652 687.124C284.935 744.63 284.872 747.047 282.988 751.307C278.295 761.916 259.67 767.589 226.358 768.556C209.992 769.031 205.36 768.804 192.942 766.92C174.154 764.069 158.428 759.248 142.358 751.414C95.9134 728.771 67.8164 695.223 51.3144 642.705C34.3934 588.852 41.4424 524.551 68.8934 482.368C85.7294 456.495 119.736 435.783 155.858 429.402C168.339 427.196 200.872 426.297 216.358 427.728C247.901 430.644 276.462 439.665 294.372 452.367C309.616 463.178 315.281 473.952 319.561 500.271C320.55 506.356 323.109 508.432 325.714 505.263C327.19 503.467 327.623 499.053 328.659 475.263C329.328 459.921 330.346 442.888 330.923 437.413C332.066 426.565 331.72 423.413 329.284 422.478C328.408 422.142 322.217 421.382 315.525 420.79C308.833 420.197 296.608 418.405 288.358 416.808C269.248 413.107 249.5 410.187 234.858 408.898C224.372 407.974 190.802 407.756 179.858 408.54ZM548.619 410.88C503.219 416.112 468.677 431.37 439.241 459.195C407.126 489.551 387.805 526.771 379.193 574.868C376.94 587.449 376.983 616.218 379.275 630.868C391.139 706.669 434.976 761.973 500.107 783.309C522.04 790.493 526.893 791.141 562.24 791.603C597.464 792.062 603.971 791.456 623.921 785.853C656.616 776.669 683.211 760.76 706.87 736.23C722.447 720.08 732.144 705.984 742.289 684.743C752.603 663.149 758.199 642.838 761.466 615.141C763.314 599.474 762.904 580.783 760.325 563.124C748.381 481.358 691.034 425.61 605.688 412.799C590.496 410.518 560.506 409.51 548.619 410.88ZM595.722 430.762C623.09 437.079 645.281 449.238 664.358 468.372C676.895 480.945 684.339 491.383 693.036 508.578C707.405 536.989 713.964 567.398 714.022 605.868C714.055 627.626 712.822 641.588 709.297 659.368C697.166 720.567 660.631 759.819 604.858 771.575C594.377 773.784 566.245 774.004 554.858 771.965C502.721 762.63 461.478 727.523 440.372 674.513C418.899 620.582 420.02 546.554 443.006 500.518C463.028 460.417 495.887 436.976 542.786 429.338C555.743 427.228 583.663 427.979 595.722 430.762Z" fill="black"/>
</svg>
