<?xml version="1.0" encoding="UTF-8"?>
<svg width="174px" height="45px" viewBox="0 0 174 45" version="1.1" xmlns="http://www.w3.org/2000/svg" xmlns:xlink="http://www.w3.org/1999/xlink">
    <!-- Generator: Sketch 58 (84663) - https://sketch.com -->
    <title>MC-Logo-Stack</title>
    <desc>Created with Sketch.</desc>
    <g id="UI---Desktop" stroke="none" stroke-width="1" fill="none" fill-rule="evenodd">
        <g id="Home-V1---Desktop-LG" transform="translate(-32.000000, -32.000000)">
            <g id="Hero">
                <g id="MC-Logo-Stack" transform="translate(32.000000, 32.000000)">
                    <g id="Group-48" transform="translate(52.169363, 7.969761)">
                        <polygon id="Fill-1" fill="#F9F9F9" points="0.631087417 0.417521917 4.98804129 0.417521917 8.53740996 7.64303989 12.0867786 0.417521917 16.4437325 0.417521917 16.4437325 15.2950684 12.3415613 15.2950684 12.3415613 7.97257178 8.53740996 15.2618465 8.452401 15.2618465 4.66925766 8.01507626 4.66925766 15.2950684 0.631087417 15.2950684"></polygon>
                        <path d="M18.0366491,8.77021483 L18.0366491,0.417595201 L22.223585,0.417595201 L22.223585,8.68520586 C22.223585,10.8316823 23.3074494,11.8520342 24.9653685,11.8520342 C26.6230434,11.8520342 27.707152,10.8741868 27.707152,8.79146707 L27.707152,0.417595201 L31.894088,0.417595201 L31.894088,8.66395362 C31.894088,13.4674488 29.1523045,15.5714208 24.9226198,15.5714208 C20.6934236,15.5714208 18.0366491,13.4249444 18.0366491,8.77021483" id="Fill-2" fill="#F9F9F9"></path>
                        <polygon id="Fill-4" fill="#F9F9F9" points="33.4867847 0.417521917 37.6099639 0.417521917 37.6099639 11.681943 44.8149625 11.681943 44.8149625 15.2950684 33.4867847 15.2950684"></polygon>
                        <polygon id="Fill-6" fill="#F9F9F9" points="46.3870421 4.03064732 41.923827 4.03064732 41.923827 0.417521917 54.9734364 0.417521917 54.9734364 4.03064732 50.5102213 4.03064732 50.5102213 15.2950684 46.3870421 15.2950684"></polygon>
                        <polygon id="Fill-8" fill="#F9F9F9" points="56.438864 15.2951661 60.5832954 15.2951661 60.5832954 0.417619628 56.438864 0.417619628"></polygon>
                        <path d="M68.1068578,7.81386394 C69.5732625,7.81386394 70.4658566,7.04878323 70.4658566,5.87966565 L70.4658566,5.83716117 C70.4658566,4.56202665 69.5732625,3.88195491 68.0856055,3.88195491 L66.1514072,3.88195491 L66.1514072,7.81386394 L68.1068578,7.81386394 Z M62.028228,0.417595201 L68.4043892,0.417595201 C72.1662803,0.417595201 74.5890358,2.35179349 74.5890358,5.64589099 L74.5890358,5.68863975 C74.5890358,9.19525967 71.8897568,11.044449 68.1918667,11.044449 L66.1514072,11.044449 L66.1514072,15.2951417 L62.028228,15.2951417 L62.028228,0.417595201 Z" id="Fill-10" fill="#F9F9F9"></path>
                        <polygon id="Fill-11" fill="#F9F9F9" points="75.9056489 0.417521917 80.0288281 0.417521917 80.0288281 11.681943 87.2338266 11.681943 87.2338266 15.2950684 75.9056489 15.2950684"></polygon>
                        <polygon id="Fill-12" fill="#F9F9F9" points="88.6570184 15.2951661 92.8014499 15.2951661 92.8014499 0.417619628 88.6570184 0.417619628"></polygon>
                        <polygon id="Fill-13" fill="#F9F9F9" points="94.6712075 0.417521917 106.636953 0.417521917 106.636953 3.92438611 98.7518822 3.92438611 98.7518822 6.17736803 105.89288 6.17736803 105.89288 9.42920532 98.7518822 9.42920532 98.7518822 11.7884485 106.743214 11.7884485 106.743214 15.2950684 94.6712075 15.2950684"></polygon>
                        <path d="M114.839927,7.55883704 C116.242575,7.55883704 117.050404,6.8787653 117.050404,5.79465668 L117.050404,5.7521522 C117.050404,4.58327889 116.200071,3.98821612 114.818675,3.98821612 L112.119396,3.98821612 L112.119396,7.55883704 L114.839927,7.55883704 Z M107.996217,0.417595201 L115.031197,0.417595201 C117.305431,0.417595201 118.878097,1.01265797 119.876953,2.03300986 C120.748295,2.88285526 121.194836,4.0307206 121.194836,5.49736957 L121.194836,5.53962978 C121.194836,7.81386394 119.983458,9.3230174 118.134269,10.1091061 L121.683637,15.2951417 L116.922647,15.2951417 L113.926081,10.7894221 L112.119396,10.7894221 L112.119396,15.2951417 L107.996217,15.2951417 L107.996217,0.417595201 Z" id="Fill-14" fill="#F9F9F9"></path>
                        <path d="M0.206921981,24.4155046 L0.206921981,24.3852141 C0.206921981,21.3715485 2.4633238,18.9031128 5.673878,18.9031128 C7.62761859,18.9031128 8.8089501,19.5846502 9.82343931,20.5537036 L8.62720679,21.9319237 C7.77907135,21.1443693 6.8703548,20.6142847 5.65873273,20.6142847 C3.62951004,20.6142847 2.16041829,22.280265 2.16041829,24.3549235 L2.16041829,24.3852141 C2.16041829,26.4601169 3.62951004,28.1561435 5.65873273,28.1561435 C6.96122645,28.1561435 7.79421662,27.6263031 8.70268889,26.7781677 L9.89940996,27.9897897 C8.79356055,29.1408307 7.58193848,29.8675597 5.59815162,29.8675597 C2.50875963,29.8675597 0.206921981,27.4597051 0.206921981,24.4155046" id="Fill-15" fill="#848484"></path>
                        <path d="M27.5737759,25.4756251 L25.7411975,21.2354364 L23.9240087,25.4756251 L27.5737759,25.4756251 Z M24.9084516,19.0090809 L26.6347688,19.0090809 L31.2992695,29.6857675 L29.3303836,29.6857675 L28.2553133,27.1264601 L23.2424713,27.1264601 L22.1522557,29.6857675 L20.2439509,29.6857675 L24.9084516,19.0090809 Z" id="Fill-16" fill="#848484"></path>
                        <path d="M46.5356612,24.5972724 C47.9441719,24.5972724 48.8225979,23.809718 48.8225979,22.7043572 L48.8225979,22.6740666 C48.8225979,21.432154 47.9290266,20.7809071 46.5356612,20.7809071 L44.3701311,20.7809071 L44.3701311,24.5972724 L46.5356612,24.5972724 Z M42.5075064,19.0848805 L46.687114,19.0848805 C49.155794,19.0848805 50.7155131,20.4931469 50.7155131,22.6283865 L50.7155131,22.6586771 C50.7155131,25.0364854 48.8074526,26.278398 46.4753244,26.278398 L44.3701311,26.278398 L44.3701311,29.6858408 L42.5075064,29.6858408 L42.5075064,19.0848805 Z" id="Fill-17" fill="#848484"></path>
                        <polygon id="Fill-18" fill="#848484" points="61.8176354 29.6858652 63.6805043 29.6858652 63.6805043 19.0849049 61.8176354 19.0849049"></polygon>
                        <polygon id="Fill-19" fill="#848484" points="78.2043353 20.8111977 74.8420841 20.8111977 74.8420841 19.0848805 83.4443565 19.0848805 83.4443565 20.8111977 80.0821052 20.8111977 80.0821052 29.6858408 78.2043353 29.6858408"></polygon>
                        <path d="M99.2559512,25.4756251 L97.4233728,21.2354364 L95.606184,25.4756251 L99.2559512,25.4756251 Z M96.5906269,19.0090809 L98.3169441,19.0090809 L102.981445,29.6857675 L101.012559,29.6857675 L99.9374886,27.1264601 L94.9246466,27.1264601 L93.834431,29.6857675 L91.9261262,29.6857675 L96.5906269,19.0090809 Z" id="Fill-20" fill="#848484"></path>
                        <polygon id="Fill-21" fill="#848484" points="114.189633 19.0847828 116.052258 19.0847828 116.052258 27.9897164 121.62523 27.9897164 121.62523 29.6857431 114.189633 29.6857431"></polygon>
                    </g>
                    <g id="Circles" transform="translate(0.000000, 0.000000)">
                        <g id="Group-5" transform="translate(18.947368, 0.000000)">
                            <path d="M7.10526316,22.500098 C7.10526316,24.4621848 5.51481638,26.0526316 3.55272959,26.0526316 C1.59044678,26.0526316 0,24.4621848 0,22.500098 C0,20.5378152 1.59044678,18.9473684 3.55272959,18.9473684 C5.51481638,18.9473684 7.10526316,20.5378152 7.10526316,22.500098" id="Fill-1" fill="#064757"></path>
                            <path d="M4.73684211,16.5788494 C4.73684211,17.2329436 4.20662784,17.7631579 3.55272959,17.7631579 C2.89863532,17.7631579 2.36842105,17.2329436 2.36842105,16.5788494 C2.36842105,15.9249511 2.89863532,15.3947368 3.55272959,15.3947368 C4.20662784,15.3947368 4.73684211,15.9249511 4.73684211,16.5788494" id="Fill-27" fill="#A1DBEB"></path>
                            <path d="M6.51315789,11.2501225 C6.51315789,12.8850455 5.18767708,14.2105263 3.55275408,14.2105263 C1.91758607,14.2105263 0.592105263,12.8850455 0.592105263,11.2501225 C0.592105263,9.61495449 1.91758607,8.28947368 3.55275408,8.28947368 C5.18767708,8.28947368 6.51315789,9.61495449 6.51315789,11.2501225" id="Fill-29" fill="#A1DBEB"></path>
                            <path d="M7.10526316,3.55263158 C7.10526316,5.51466425 5.51481638,7.10526316 3.55272959,7.10526316 C1.59044678,7.10526316 0,5.51466425 0,3.55263158 C0,1.59059891 1.59044678,0 3.55272959,0 C5.51481638,0 7.10526316,1.59059891 7.10526316,3.55263158" id="Fill-31" fill="#A1DBEB"></path>
                            <path d="M2.36842105,28.4211506 C2.36842105,27.7670564 2.89863532,27.2368421 3.55272959,27.2368421 C4.20662784,27.2368421 4.73684211,27.7670564 4.73684211,28.4211506 C4.73684211,29.0752449 4.20662784,29.6052632 3.55272959,29.6052632 C2.89863532,29.6052632 2.36842105,29.0752449 2.36842105,28.4211506" id="Fill-34" fill="#A1DBEB"></path>
                            <path d="M0.592105263,33.7498775 C0.592105263,32.1149545 1.91758607,30.7894737 3.55275408,30.7894737 C5.18767708,30.7894737 6.51315789,32.1149545 6.51315789,33.7498775 C6.51315789,35.3850455 5.18767708,36.7105263 3.55275408,36.7105263 C1.91758607,36.7105263 0.592105263,35.3850455 0.592105263,33.7498775" id="Fill-36" fill="#A1DBEB"></path>
                            <path d="M0,41.4473684 C0,39.4853358 1.59044678,37.8947368 3.55272959,37.8947368 C5.51481638,37.8947368 7.10526316,39.4853358 7.10526316,41.4473684 C7.10526316,43.4095971 5.51481638,45 3.55272959,45 C1.59044678,45 0,43.4095971 0,41.4473684" id="Fill-38" fill="#A1DBEB"></path>
                        </g>
                        <path d="M5.67572843,7.35058736 C5.21335368,6.88821261 5.21335368,6.13810318 5.67572843,5.67572843 C6.13810318,5.21335368 6.88821261,5.21335368 7.35058736,5.67572843 C7.81296211,6.13810318 7.81296211,6.88821261 7.35058736,7.35058736 C6.88821261,7.81296211 6.13810318,7.81296211 5.67572843,7.35058736" id="Fill-3" fill="#398DA1"></path>
                        <path d="M7.97238162,12.7513026 C6.81622367,11.5951446 6.81622367,9.72064484 7.97238162,8.56448689 C9.12853958,7.40832893 11.0030394,7.40832893 12.1591973,8.56448689 C13.3153553,9.72064484 13.3153553,11.5951446 12.1591973,12.7513026 C11.0030394,13.9074605 9.12853958,13.9074605 7.97238162,12.7513026" id="Fill-5" fill="#398DA1"></path>
                        <path d="M13.4747151,13.4747151 C14.8620544,12.0873757 17.1116298,12.0873757 18.4989691,13.4747151 C19.8863085,14.8620544 19.8863085,17.1116298 18.4989691,18.4989691 C17.1116298,19.8863085 14.8620544,19.8863085 13.4747151,18.4989691 C12.0873757,17.1116298 12.0873757,14.8620544 13.4747151,13.4747151 Z" id="Fill-7" fill="#398DA1"></path>
                        <path d="M7.35058736,39.9163768 C6.88821261,40.3787516 6.13810318,40.3787516 5.67572843,39.9163768 C5.21335368,39.4540021 5.21335368,38.7038927 5.67572843,38.2415179 C6.13810318,37.7791432 6.88821261,37.7791432 7.35058736,38.2415179 C7.81296211,38.7038927 7.81296211,39.4540021 7.35058736,39.9163768" id="Fill-9" fill="#398DA1"></path>
                        <path d="M12.1591973,37.0276184 C11.0030394,38.1837763 9.12853958,38.1837763 7.97238162,37.0276184 C6.81622367,35.8714604 6.81622367,33.9969606 7.97238162,32.8408027 C9.12853958,31.6846447 11.0030394,31.6846447 12.1591973,32.8408027 C13.3153553,33.9969606 13.3153553,35.8714604 12.1591973,37.0276184" id="Fill-11" fill="#398DA1"></path>
                        <path d="M18.4989691,31.5252849 C17.1116298,32.9126243 14.8620544,32.9126243 13.4747151,31.5252849 C12.0873757,30.1379456 12.0873757,27.8883702 13.4747151,26.5010309 C14.8620544,25.1136915 17.1116298,25.1136915 18.4989691,26.5010309 C19.8863085,27.8883702 19.8863085,30.1379456 18.4989691,31.5252849" id="Fill-13" fill="#398DA1"></path>
                        <path d="M39.9163768,38.2415179 C40.3787516,38.7038927 40.3787516,39.4540021 39.9163768,39.9163768 C39.4540021,40.3787516 38.7038927,40.3787516 38.2415179,39.9163768 C37.7791432,39.4540021 37.7791432,38.7038927 38.2415179,38.2415179 C38.7038927,37.7791432 39.4540021,37.7791432 39.9163768,38.2415179" id="Fill-15" fill="#398DA1"></path>
                        <path d="M37.0276184,32.8408027 C38.1837763,33.9969606 38.1837763,35.8714604 37.0276184,37.0276184 C35.8714604,38.1837763 33.9969606,38.1837763 32.8408027,37.0276184 C31.6846447,35.8714604 31.6846447,33.9969606 32.8408027,32.8408027 C33.9969606,31.6846447 35.8714604,31.6846447 37.0276184,32.8408027" id="Fill-17" fill="#398DA1"></path>
                        <path d="M31.5252849,26.5010309 C32.9126243,27.8883702 32.9126243,30.1379456 31.5252849,31.5252849 C30.1379456,32.9126243 27.8883702,32.9126243 26.5010309,31.5252849 C25.1136915,30.1379456 25.1136915,27.8883702 26.5010309,26.5010309 C27.8883702,25.1136915 30.1379456,25.1136915 31.5252849,26.5010309" id="Fill-19" fill="#398DA1"></path>
                        <path d="M38.2415179,5.67572843 C38.7038927,5.21335368 39.4540021,5.21335368 39.9163768,5.67572843 C40.3787516,6.13810318 40.3787516,6.88821261 39.9163768,7.35058736 C39.4540021,7.81296211 38.7038927,7.81296211 38.2415179,7.35058736 C37.7791432,6.88821261 37.7791432,6.13810318 38.2415179,5.67572843" id="Fill-21" fill="#398DA1"></path>
                        <path d="M32.8408027,8.56448689 C33.9969606,7.40832893 35.8714604,7.40832893 37.0276184,8.56448689 C38.1837763,9.72064484 38.1837763,11.5951446 37.0276184,12.7513026 C35.8714604,13.9074605 33.9969606,13.9074605 32.8408027,12.7513026 C31.6846447,11.5951446 31.6846447,9.72064484 32.8408027,8.56448689" id="Fill-23" fill="#398DA1"></path>
                        <path d="M26.5010309,13.4747151 C27.8883702,12.0873757 30.1379456,12.0873757 31.5252849,13.4747151 C32.9126243,14.8620544 32.9126243,17.1116298 31.5252849,18.4989691 C30.1379456,19.8863085 27.8883702,19.8863085 26.5010309,18.4989691 C25.1136915,17.1116298 25.1136915,14.8620544 26.5010309,13.4747151" id="Fill-25" fill="#398DA1"></path>
                        <path d="M16.5788494,21.3157895 C17.2329436,21.3157895 17.7631579,21.8460037 17.7631579,22.500098 C17.7631579,23.1539963 17.2329436,23.6842105 16.5788494,23.6842105 C15.9249511,23.6842105 15.3947368,23.1539963 15.3947368,22.500098 C15.3947368,21.8460037 15.9249511,21.3157895 16.5788494,21.3157895" id="Fill-40" fill="#A1DBEB"></path>
                        <path d="M11.2501225,19.5394737 C12.8850455,19.5394737 14.2105263,20.8649545 14.2105263,22.5001225 C14.2105263,24.1350455 12.8850455,25.4605263 11.2501225,25.4605263 C9.61495449,25.4605263 8.28947368,24.1350455 8.28947368,22.5001225 C8.28947368,20.8649545 9.61495449,19.5394737 11.2501225,19.5394737" id="Fill-42" fill="#A1DBEB"></path>
                        <path d="M3.55263158,18.9473684 C5.51466425,18.9473684 7.10526316,20.5378152 7.10526316,22.500098 C7.10526316,24.4621848 5.51466425,26.0526316 3.55263158,26.0526316 C1.59059891,26.0526316 0,24.4621848 0,22.500098 C0,20.5378152 1.59059891,18.9473684 3.55263158,18.9473684" id="Fill-44" fill="#A1DBEB"></path>
                        <path d="M28.4211506,23.6842105 C27.7670564,23.6842105 27.2368421,23.1539963 27.2368421,22.500098 C27.2368421,21.8460037 27.7670564,21.3157895 28.4211506,21.3157895 C29.0752449,21.3157895 29.6052632,21.8460037 29.6052632,22.500098 C29.6052632,23.1539963 29.0752449,23.6842105 28.4211506,23.6842105" id="Fill-46" fill="#A1DBEB"></path>
                        <path d="M33.7498775,25.4605263 C32.1149545,25.4605263 30.7894737,24.1350455 30.7894737,22.5001225 C30.7894737,20.8649545 32.1149545,19.5394737 33.7498775,19.5394737 C35.3850455,19.5394737 36.7105263,20.8649545 36.7105263,22.5001225 C36.7105263,24.1350455 35.3850455,25.4605263 33.7498775,25.4605263" id="Fill-48" fill="#A1DBEB"></path>
                        <path d="M41.4473684,26.0526316 C39.4853358,26.0526316 37.8947368,24.4621848 37.8947368,22.500098 C37.8947368,20.5378152 39.4853358,18.9473684 41.4473684,18.9473684 C43.4095971,18.9473684 45,20.5378152 45,22.500098 C45,24.4621848 43.4095971,26.0526316 41.4473684,26.0526316" id="Fill-50" fill="#A1DBEB"></path>
                    </g>
                </g>
            </g>
        </g>
    </g>
</svg>