<?xml version="1.0" encoding="UTF-8"?>
<svg id="Layer_2" data-name="Layer 2" xmlns="http://www.w3.org/2000/svg" viewBox="0 0 1503.31 185.89">
  <defs>
    <style>
      .cls-1 {
        fill: #010f05;
      }

      .cls-2 {
        fill: #1d5080;
      }
    </style>
  </defs>
  <g id="artwork_1:1_" data-name="artwork (1:1)">
    <g>
      <path class="cls-2" d="M206.3,78.88c0,4.53-.93,8.93-2.8,13.06-1.87,4-4.8,7.46-8.26,10.13-4.26,3.06-9.06,5.2-14.12,6.53-6.53,1.6-13.19,2.4-19.85,2.27-4,0-7.86-.27-11.86-.93v41.57h-19.45V52.23c4.93-1.87,10.13-3.2,15.32-4.13,5.73-.93,11.46-1.47,17.32-1.47,6.53-.13,13.06.67,19.45,2.4,4.93,1.33,9.59,3.46,13.59,6.53,3.46,2.67,6.26,6.13,8,10.13,1.87,4.13,2.67,8.66,2.67,13.19ZM186.98,78.62c0-6.93-1.87-12.26-5.6-15.99-3.73-3.73-9.86-5.46-18.39-5.46-2.4,0-4.8.13-7.06.4-2.27.27-4.4.67-6.53,1.47v40.11c1.87.4,3.86.67,5.86.8,2,.13,4,.27,6,.27,9.19,0,15.72-1.87,19.72-5.73,4.13-3.73,6-9.06,6-15.86Z"/>
      <path class="cls-2" d="M238.41,47.84c0,2.53-1.2,4.8-3.2,6.4-4.53,3.46-10.93,3.46-15.46,0-3.46-2.53-4.26-7.46-1.73-11.06.53-.67,1.07-1.2,1.73-1.73,4.53-3.46,10.93-3.46,15.46,0,2,1.6,3.2,4,3.2,6.4ZM218.03,151.37v-80.62h18.79v80.62h-18.79Z"/>
      <path class="cls-2" d="M295.58,151.24c-1.6.53-3.2,1.07-4.8,1.33-1.87.4-3.73.53-5.73.53-4,.13-7.86-.53-11.73-1.87-2.93-1.07-5.6-2.8-7.86-5.06-2-2-3.46-4.53-4.4-7.2-.93-2.8-1.33-5.73-1.33-8.66v-48.9h-12.26v-10.66h12.26v-18.12l18.66-4.8v22.92h17.06v10.66h-16.92v49.17c0,2.8,1.07,5.33,2.93,7.33,2,2.13,4.93,3.2,8.93,3.2,1.73,0,3.46-.27,5.06-.8l.13,10.93Z"/>
      <path class="cls-2" d="M360.74,147.64c-6.26,3.73-13.86,5.6-22.92,5.6-5.6.13-11.33-.93-16.52-3.2-4.66-2-8.66-5.06-11.99-8.79-3.33-3.86-5.86-8.39-7.46-13.33-3.33-10.93-3.33-22.52,0-33.45,1.6-4.93,4.13-9.46,7.46-13.33,3.33-3.73,7.33-6.8,11.99-8.79,5.2-2.27,10.79-3.33,16.39-3.2,8.93,0,16.52,1.87,22.79,5.6l-4.4,9.86c-2-1.47-4.26-2.4-6.66-2.93-2.67-.67-5.33-.93-8.13-.93-3.46-.13-6.93.8-9.99,2.4-2.8,1.6-5.2,3.73-7.06,6.4-2,2.93-3.33,6.13-4.13,9.59-.93,3.86-1.47,7.86-1.47,11.86s.4,8,1.47,11.86c.8,3.46,2.27,6.66,4.13,9.59,1.73,2.67,4.26,4.93,7.06,6.53,3.06,1.6,6.53,2.53,9.99,2.4,5.2.13,10.26-1.2,14.66-3.86l4.8,10.13Z"/>
      <path class="cls-2" d="M425.5,151.51v-52.77c0-6.26-1.6-10.93-4.66-14.12-3.2-3.2-7.86-4.8-14.12-4.8-2.93,0-5.73.27-8.66.8-2.8.53-5.46,1.33-8,2.4v68.36h-18.66V34.11h18.66v39.44c3.2-1.47,6.66-2.53,10.13-3.2,3.73-.8,7.46-1.07,11.19-1.07,10.66,0,18.79,2.53,24.52,7.46,5.73,4.93,8.53,12.26,8.53,22.12v52.77l-18.92-.13Z"/>
      <path class="cls-2" d="M537.7,123.26c.13,4.66-.93,9.33-3.2,13.46-2.13,3.86-5.33,7.06-9.19,9.33-4.4,2.67-9.19,4.53-14.26,5.46-6,1.2-12.13,1.87-18.39,1.73-6.26,0-12.53-.4-18.66-1.33-5.46-.8-10.93-2.13-16.12-4.26V52.37c4.93-2,10.13-3.33,15.46-4.13,6-.93,11.99-1.33,17.99-1.33,13.99,0,24.52,2.4,31.58,7.33,7.06,4.93,10.66,11.33,10.66,19.45.13,3.2-.53,6.4-1.87,9.33-1.2,2.53-2.93,4.93-5.06,6.8-2.13,1.87-4.53,3.46-7.06,4.66-2.67,1.2-5.33,2-8.13,2.53v.27c3.2.67,6.4,1.6,9.33,2.93,3.06,1.33,5.86,3.2,8.39,5.33,2.53,2.13,4.53,4.66,6,7.6,1.73,3.2,2.53,6.66,2.53,10.13ZM514.64,74.62c0-5.73-1.87-10.13-5.46-13.06-3.73-2.93-9.59-4.4-17.59-4.4-4.93-.13-9.86.67-14.52,2.13v33.98h8.26c4.66.13,9.33-.27,13.86-1.2,3.2-.67,6.26-1.73,9.06-3.46,2.27-1.47,4-3.46,5.06-5.86.93-2.53,1.47-5.33,1.33-8.13ZM517.97,123.12c0-7.2-2.53-12.53-7.73-15.99-5.2-3.46-13.46-5.2-25.05-5.2h-8.26v37.98c2.27.8,4.66,1.47,7.06,1.73,2.8.4,5.6.53,8.39.53,3.46,0,6.93-.27,10.26-1.07,2.93-.53,5.6-1.73,8.13-3.33,2.27-1.47,4-3.6,5.33-5.86,1.33-2.8,2-5.73,1.87-8.79Z"/>
      <path class="cls-2" d="M625.91,111.13c0,5.73-.93,11.33-2.67,16.79-1.6,4.93-4.26,9.46-7.73,13.33-3.46,3.86-7.73,6.8-12.53,8.79-11.06,4.26-23.32,4.26-34.38,0-4.8-2-9.06-5.06-12.53-8.79-3.46-3.86-6.13-8.39-7.73-13.33-3.46-10.93-3.46-22.52,0-33.45,1.6-4.93,4.26-9.46,7.73-13.33,3.46-3.86,7.73-6.8,12.53-8.79,11.06-4.26,23.32-4.26,34.38,0,4.8,2,9.06,5.06,12.66,8.79,3.46,3.86,6.13,8.39,7.73,13.33,1.73,5.46,2.66,11.06,2.53,16.66ZM606.85,110.87c0-4.13-.4-8.13-1.2-12.13-.67-3.46-1.87-6.8-3.73-9.86-5.46-8.66-16.79-11.59-25.72-6.66-2.67,1.6-4.93,3.86-6.4,6.53-1.73,3.06-3.06,6.4-3.73,9.86-.8,4-1.2,8-1.2,12.13s.4,8.13,1.2,12.13c.67,3.46,1.87,6.8,3.73,9.86,5.46,8.66,16.66,11.46,25.58,6.53,2.67-1.6,4.93-3.86,6.53-6.53,1.73-3.06,2.93-6.4,3.73-9.86.8-3.86,1.2-8,1.2-11.99Z"/>
      <path class="cls-2" d="M713.59,111.26c0,5.73-.93,11.33-2.67,16.79-1.6,4.93-4.26,9.46-7.73,13.33-3.46,3.86-7.73,6.8-12.53,8.79-11.06,4.26-23.32,4.26-34.38,0-4.8-2-9.06-5.06-12.53-8.79-3.46-3.86-6.13-8.39-7.73-13.33-1.73-5.46-2.67-11.06-2.67-16.79s.8-11.33,2.67-16.66c1.6-4.93,4.26-9.46,7.73-13.33,3.46-3.86,7.73-6.8,12.53-8.79,11.06-4.26,23.32-4.26,34.38,0,4.8,2,9.06,5.06,12.53,8.79,3.46,3.86,6.13,8.39,7.73,13.33,1.73,5.33,2.67,10.93,2.67,16.66ZM694.4,111c0-4.13-.4-8.13-1.2-12.13-.67-3.46-1.87-6.8-3.73-9.86-3.2-5.73-9.46-9.19-16.12-8.93-6.66-.27-12.79,3.2-16.12,8.93-1.73,3.06-2.93,6.4-3.73,9.86-1.6,8-1.6,16.26,0,24.25.67,3.46,1.87,6.8,3.73,9.86,5.2,8.93,16.66,11.86,25.58,6.66,2.67-1.6,5.06-3.86,6.66-6.66,1.73-3.06,2.93-6.4,3.73-9.86.8-4.13,1.2-8.13,1.2-12.13h0Z"/>
      <path class="cls-2" d="M777.55,151.64l-35.58-43.84h-.27v43.84h-18.52V34.25h18.52v71.69h.27l33.85-34.91h19.85l-36.11,35.04,39.98,45.57h-21.99Z"/>
      <path class="cls-2" d="M93.57,29.72C20.68,35.58-9.43,95.81,2.56,133.78c7.06-10.79,20.12-22.65,46.9-26.92-1.6-31.98,9.99-54.23,44.11-77.15Z"/>
      <path class="cls-2" d="M56.13,111.4c-18.39,3.06-31.18,8-39.18,15.59.27,10.13,3.2,19.99,8.39,28.65,6.26-15.19,26.65-25.85,57.7-25.98-7.6-36.38,9.33-69.69,35.58-92.08-13.06,1.87-25.72,5.33-37.98,10.13-19.99,19.19-27.45,43.97-24.52,63.69Z"/>
      <rect x="857.83" width="2" height="185.89"/>
      <g>
        <path class="cls-1" d="M1003.14,150.76h-77.19v-6.35l7.62-.64c7.94-.64,8.58-5.56,8.58-26.84v-46.7c0-21.28-.64-26.21-8.58-26.84l-7.62-.64v-6.35h46.7v6.35l-9.21.64c-7.94.48-8.58,3.97-8.58,25.25v65.12c0,7.46,1.59,10.01,11.75,10.48,26.68,1.27,30.49-13.18,33.2-20.65h6.35l-3.02,27.16Z"/>
        <path class="cls-1" d="M1037,152.66c-11.91,0-20.97-9.05-20.97-23.82v-50.51h-12.55v-6.99h24.62v54c0,9.53,3.97,17.15,14.77,17.15,7.31,0,15.25-5.56,22.56-12.55v-51.62h-14.61v-6.99h26.36v61.15c0,6.99,2.06,8.89,7.62,9.37l3.97.32v5.08l-23.35,4.76v-13.98c-6.19,5.56-16.52,14.61-28.43,14.61Z"/>
        <path class="cls-1" d="M1094.1,145.2c7.31-.95,11.12-2.38,11.12-10.17v-45.43c0-6.99-2.06-8.89-7.62-9.37l-3.97-.32v-5.08l23.35-4.76v13.5c6.19-6.67,14.77-14.14,25.25-14.14,8.58,0,16.36,5.08,19.06,14.14,6.19-6.67,14.93-14.14,25.41-14.14,15.41,0,20.33,12.23,20.33,23.82v50.67l.16.16h11.91v6.67h-35.26v-5.56c7.31-.95,11.12-2.38,11.12-10.17v-38.75c0-9.53-3.49-16.68-12.55-16.68-7.31,0-14.93,4.76-20.49,11.28v53.21h11.12v6.67h-34.15v-5.56c7.31-.95,11.12-2.38,11.12-10.17v-38.75c0-9.53-3.02-16.68-12.07-16.68-7.62,0-15.25,5.08-20.97,12.07v52.41h11.12v6.67h-33.99v-5.56Z"/>
        <path class="cls-1" d="M1261.41,152.66c-23.03,0-37.96-18.27-37.96-41.61,0-21.6,14.93-41.61,37.96-41.61s37.8,18.42,37.8,41.61c0,21.76-14.93,41.61-37.8,41.61ZM1236.63,105.17c0,20.97,11.28,40.66,27.95,40.66,13.34,0,21.6-13.02,21.6-27.95,0-20.81-10.8-41.61-27.48-41.61-14.77,0-22.08,13.66-22.08,28.91Z"/>
        <path class="cls-1" d="M1306.44,145.2c7.31-.95,11.12-2.38,11.12-10.17v-45.43c0-6.99-2.06-8.89-7.62-9.37l-3.97-.32v-5.08l23.35-4.76v13.98c6.19-5.56,16.68-14.61,28.59-14.61s21.44,9.05,21.44,23.82v50.83h11.91v6.67h-35.1v-5.56c7.31-.95,11.12-2.38,11.12-10.17v-38.28c0-9.53-3.65-17.15-14.93-17.15-7.31,0-15.72,5.56-23.03,12.55v51.94h12.39v6.67h-35.26v-5.56Z"/>
        <path class="cls-1" d="M1395.66,145.2c7.31-.95,11.12-2.38,11.12-10.17v-45.43c0-6.99-2.06-8.89-7.62-9.37l-3.97-.32v-5.08l23.35-4.76v74.01h12.07v6.67h-34.94v-5.56ZM1403.29,44.98c0-5.24,4.13-9.37,9.37-9.37s9.37,4.29,9.37,9.37c0,5.4-4.29,9.37-9.37,9.37s-9.37-3.97-9.37-9.37Z"/>
        <path class="cls-1" d="M1470.6,152.98c-19.06,0-34.15-16.2-34.15-39.71s16.2-44.15,38.12-44.15c19.69,0,28.11,12.87,28.11,23.98,0,5.4-3.97,9.69-8.9,9.69s-8.73-3.65-8.73-8.42c0-3.34,1.75-5.72,1.91-8.26.64-8.42-6.19-11.12-12.86-11.12-14.61,0-25.41,13.98-25.41,31.92,0,19.54,11.12,34.62,27.48,34.47,12.23-.16,19.06-7.62,22.87-12.23l4.29,2.54c-5.88,12.07-19.22,21.28-32.72,21.28Z"/>
      </g>
    </g>
  </g>
</svg>