<svg width="222" height="60" viewBox="0 0 222 60" fill="none" xmlns="http://www.w3.org/2000/svg">
<g clip-path="url(#clip0_648_1835)">
<path d="M6.61007 15.5496L15.4279 6.6622L25.3497 16.6622L28.6614 13.3378L18.7396 3.3378L15.4279 0L0 15.5496L3.31169 18.8874L25.3497 41.1126L28.6614 37.7748L6.61007 15.5496Z" fill="#6E9BE7"/>
<path d="M15.4279 53.3244L6.61008 44.437L16.5318 34.437L13.2335 31.1126L3.31169 41.1126L0 44.437L15.4279 60L18.7396 56.6622L33.077 42.2252L29.7653 38.8874L15.4279 53.3244Z" fill="#6E9BE7"/>
<path d="M61.7383 44.437L52.9072 53.3244L42.9987 43.3378L39.687 46.6622L49.6088 56.6622L52.9072 60L68.3484 44.437L65.0367 41.1126L42.9987 18.8874L39.687 22.2252L61.7383 44.437Z" fill="#6E9BE7"/>
<path d="M52.9071 6.6622L61.7383 15.5496L51.8165 25.5496L55.1149 28.8874L65.0367 18.8874L68.3484 15.5496L52.9071 0L49.6088 3.3378L35.2714 17.7748L38.5831 21.1126L52.9071 6.6622Z" fill="#6E9BE7"/>
<path d="M46.2972 31.1126L34.1676 43.3378L30.8692 46.6622L34.1676 50L37.4793 46.6622L49.6089 34.437L46.2972 31.1126Z" fill="#6E9BE7"/>
<path d="M37.4794 13.3378L34.1677 9.99999L30.8693 13.3378L18.7397 25.5496L22.0514 28.8874L34.1677 16.6622L37.4794 13.3378Z" fill="#6E9BE7"/>
<path d="M41.8949 26.6622L34.1676 18.8874L30.8692 22.2252L38.5832 30L35.2715 33.3378L38.5832 36.6622L41.8949 33.3378L45.1933 30L41.8949 26.6622Z" fill="#6E9BE7"/>
<path d="M29.7652 30L33.0769 26.6622L29.7652 23.3378L26.4535 26.6622L23.1551 30L26.4535 33.3378L34.1675 41.1126L37.4791 37.7748L29.7652 30Z" fill="#6E9BE7"/>
</g>
<path d="M104.83 49.3944C103.806 49.3944 102.909 49.1997 102.141 48.8104C101.373 48.421 100.781 47.8634 100.366 47.1378C99.9513 46.4121 99.7437 45.5537 99.7437 44.5626C99.7437 43.5714 99.9513 42.713 100.366 41.9873C100.781 41.2528 101.373 40.6909 102.141 40.3015C102.909 39.9121 103.806 39.7174 104.83 39.7174C105.492 39.7174 106.084 39.7794 106.605 39.9033C107.126 40.0272 107.612 40.2263 108.062 40.5006V43.036C107.674 42.7351 107.236 42.5183 106.751 42.3856C106.265 42.2528 105.704 42.1865 105.069 42.1865C104.238 42.1865 103.607 42.3856 103.174 42.7838C102.751 43.182 102.539 43.775 102.539 44.5626C102.539 45.3502 102.759 45.9475 103.201 46.3546C103.642 46.7528 104.265 46.9519 105.069 46.9519C105.696 46.9519 106.256 46.8811 106.751 46.7396C107.254 46.598 107.727 46.3723 108.168 46.0626V48.5847C107.312 49.1245 106.199 49.3944 104.83 49.3944Z" fill="#6E9BE7"/>
<path d="M119.485 39.9165H122.121L125.817 49.1953H123.009L122.32 47.4298H119.287L118.584 49.1953H115.776L119.485 39.9165ZM121.684 45.3457L120.797 42.744L119.909 45.3457H121.684Z" fill="#6E9BE7"/>
<path d="M134.027 39.9165H138.292C139.405 39.9165 140.288 40.2042 140.941 40.7794C141.604 41.3457 141.935 42.1599 141.935 43.2219C141.935 44.2838 141.604 45.1024 140.941 45.6776C140.288 46.2528 139.405 46.5404 138.292 46.5404H136.769V49.1953H134.027V39.9165ZM137.776 44.3634C138.2 44.3634 138.531 44.2794 138.769 44.1112C139.008 43.9431 139.127 43.6466 139.127 43.2219C139.127 42.8059 139.008 42.5139 138.769 42.3457C138.531 42.1776 138.2 42.0935 137.776 42.0935H136.769V44.3634H137.776Z" fill="#6E9BE7"/>
<path d="M150.021 39.9165H152.763V49.1953H150.021V39.9165Z" fill="#6E9BE7"/>
<path d="M163.268 42.2263H160.778V39.9165H168.5V42.2263H166.01V49.1953H163.268V42.2263Z" fill="#6E9BE7"/>
<path d="M178.299 39.9165H180.935L184.631 49.1953H181.823L181.134 47.4298H178.101L177.399 49.1953H174.59L178.299 39.9165ZM180.498 45.3457L179.611 42.744L178.723 45.3457H180.498Z" fill="#6E9BE7"/>
<path d="M192.841 39.9165H195.583V46.8856H199.318V49.1953H192.841V39.9165Z" fill="#6E9BE7"/>
<path d="M79.475 32.1759V15.9468H93.3439C95.7665 15.9468 96.9778 16.9964 96.9778 19.0957V22.7041C96.9778 24.7978 95.7665 25.8474 93.3439 25.853H83.1756V32.1759H79.475ZM91.6436 18.7198H83.1756V23.0883H91.6436C92.0613 23.1174 92.4801 23.0517 92.8688 22.8961C93.0401 22.7687 93.1745 22.5979 93.258 22.4012C93.3415 22.2044 93.3711 21.9889 93.3439 21.7769V20.0229C93.3711 19.8108 93.3415 19.5953 93.258 19.3986C93.1745 19.2019 93.0401 19.031 92.8688 18.9036C92.4792 18.7517 92.0606 18.6889 91.6436 18.7198Z" fill="#231F20"/>
<path d="M104.039 32.1831V15.954H107.806V29.1261H119.95V32.1831H104.039Z" fill="#231F20"/>
<path d="M126.726 32.1831V15.954H143.287V18.7271H130.46V22.3354H137.961V25.1001H130.46V29.1261H143.42V32.1831H126.726Z" fill="#231F20"/>
<path d="M149.815 32.1789L157.499 23.8263L149.69 15.9331H154.69L159.874 21.4374L164.8 15.9331H169.126L162.067 23.3836L170.793 32.1622H165.675L159.749 25.8727L154.282 32.1622L149.815 32.1789Z" fill="#231F20"/>
<path d="M181.087 15.954V29.1261H191.814V15.954H195.581V28.3409C195.581 29.85 195.304 30.869 194.748 31.398C194.19 31.9158 193.131 32.1831 191.581 32.1831H181.337C179.796 32.1831 178.737 31.9158 178.17 31.398C177.604 30.8801 177.337 29.8527 177.337 28.3409V15.954H181.087Z" fill="#231F20"/>
<path d="M218.525 18.7833H207.89V22.2747H217.975C219.525 22.2747 220.592 22.5337 221.167 23.0599C221.742 23.5861 222 24.5968 222 26.1086V28.3387C222 29.8505 221.717 30.8445 221.167 31.3958C220.617 31.9471 219.5 32.1809 217.975 32.1809H207.973C206.423 32.1809 205.364 31.9136 204.789 31.3958C204.214 30.8779 203.956 29.8505 203.956 28.3387V27.9044L207.29 27.2111V29.1239H218.741V25.4153H208.64C207.09 25.4153 206.031 25.1564 205.473 24.6302C204.914 24.104 204.639 23.0933 204.639 21.5815V19.7857C204.639 18.2822 204.923 17.2799 205.473 16.737C206.023 16.194 207.09 15.9518 208.64 15.9518H217.808C218.902 15.8464 219.999 16.111 220.925 16.7035C221.525 17.2131 221.825 18.1402 221.825 19.51V19.8525L218.491 20.6376L218.525 18.7833Z" fill="#231F20"/>
<defs>
<clipPath id="clip0_648_1835">
<rect width="68.3484" height="60" fill="white"/>
</clipPath>
</defs>
</svg>
