<svg width="1631" height="382" viewBox="0 0 1631 382" fill="none" xmlns="http://www.w3.org/2000/svg">
<path fill-rule="evenodd" clip-rule="evenodd" d="M182.802 62.84C163.169 97.303 133.784 148.855 117.502 177.401C101.221 205.947 87.8089 229.723 87.6999 230.239C87.5029 231.16 139.262 254.03 141.403 253.968C142.006 253.951 151.074 247.538 161.553 239.718C172.032 231.898 199.932 211.062 223.553 193.417C247.174 175.771 273.551 156.091 282.169 149.683L297.839 138.034L258.855 69.767C237.413 32.22 219.562 1.20301 219.185 0.840008C218.808 0.476008 202.436 28.376 182.802 62.84ZM1003.24 78.25L1003.5 146.5H1016.5H1029.5L1030 101.704L1030.5 56.907L1034.22 61.361C1036.27 63.81 1045.04 73.867 1053.72 83.71C1062.4 93.553 1078.87 112.27 1090.32 125.303L1111.15 149H1120.07H1129V81.5V14H1115.5H1102L1101.95 58.25L1101.91 102.5L1096.45 96.5C1093.45 93.2 1075.36 72.409 1056.25 50.298L1021.5 10.097L1012.24 10.048L1002.99 10L1003.24 78.25ZM1515.26 18.224C1517.1 21.126 1527.47 37.487 1538.31 54.581L1558 85.662V116.331V147H1571H1584V116.146V85.292L1607.41 49.396L1630.82 13.5L1615.67 13.223C1602.11 12.975 1600.38 13.133 1599.2 14.723C1598.48 15.7 1592.18 25.837 1585.19 37.249C1578.21 48.661 1572.28 57.999 1572 57.999C1571.72 57.998 1565.16 47.986 1557.4 35.749L1543.3 13.5L1527.6 13.224L1511.91 12.949L1515.26 18.224ZM517 25V36H531.992H546.983L547.242 91.75L547.5 147.5H560.5H573.5L573.758 91.75L574.017 36H588.508H603V25V14H560H517V25ZM688 80.53V147.06L700.75 146.78L713.5 146.5L713.766 119.75C714.026 93.66 714.083 93 716.054 93C717.594 93 722.398 99.552 736.216 120.5L754.357 148H769.679C778.105 148 785 147.73 785 147.4C785 147.07 775.567 134.281 764.037 118.979L743.075 91.158L748.987 89.162C760.209 85.372 768.194 77.628 771.263 67.559C773.183 61.26 772.838 44.511 770.659 38.238C768.355 31.604 760.41 22.748 753.723 19.36C745.092 14.986 737.63 14.036 711.75 14.017L688 14V80.53ZM873.243 80.75L873.5 147.5H886.5H899.5L899.757 80.75L900.014 14H886.5H872.986L873.243 80.75ZM1227.24 80.75L1227.5 147.5H1240.5H1253.5L1253.76 80.75L1254.01 14H1240.5H1226.99L1227.24 80.75ZM1348 25V36H1362.99H1377.98L1378.24 91.75L1378.5 147.5H1391.5H1404.5L1404.76 91.75L1405.02 36H1419.51H1434V25V14H1391H1348V25ZM734.101 36.138C745.726 40.03 751.136 52.495 746.057 63.684C742.709 71.058 734.213 74.925 721.25 74.976L715 75V55V35H722.851C727.169 35 732.231 35.512 734.101 36.138ZM284.39 165.267C273.402 173.095 262.519 180.799 260.206 182.386C257.068 184.539 256.002 185.936 256.006 187.886C256.015 191.312 279.822 380.155 280.307 380.64C280.511 380.845 316.31 380.897 359.86 380.756L439.041 380.5L415.888 341C342.706 216.149 304.762 151.473 304.577 151.267C304.462 151.139 295.377 157.439 284.39 165.267ZM763.985 247.25C751.505 276.231 709 377.359 709 378.072C709 378.596 714.813 379 722.36 379H735.719L741.714 365.25L747.708 351.5L775.21 351.234L802.712 350.969L808.251 364.734L813.79 378.5L827.402 378.778L841.013 379.057L839.182 374.278C833.408 359.21 786.515 244.292 785.715 243.25C785.069 242.409 781.726 242 775.501 242H766.246L763.985 247.25ZM1399.7 242.715C1399.35 243.299 1364.4 325.816 1343.34 375.75L1341.97 379H1355.78H1369.6L1375.55 365.019L1381.5 351.037L1409.04 351.019L1436.58 351L1442.04 364.75L1447.5 378.5L1460.75 378.779C1471.01 378.995 1473.99 378.769 1473.96 377.779C1473.94 377.076 1461.65 346.35 1446.65 309.5L1419.38 242.5L1409.77 242.215C1404.49 242.058 1399.95 242.283 1399.7 242.715ZM75.7819 250.909C73.3329 255.084 55.4959 285.377 36.1429 318.226C16.7899 351.076 0.691945 378.638 0.370945 379.476C-0.151055 380.837 14.0679 381 132.927 381H266.069L265.465 376.25C265.132 373.637 263.614 360.533 262.09 347.129C259.678 325.905 259.074 322.616 257.41 321.649C256.36 321.038 246.95 316.789 236.5 312.206C226.05 307.622 194.775 293.81 167 281.511C139.225 269.212 108.34 255.588 98.3659 251.234L80.2329 243.319L75.7819 250.909ZM576.161 245.032C561.039 248.994 546.371 259.016 537.497 271.453C527.465 285.511 523.462 298.888 524.317 315.5C525.356 335.688 533.393 352.29 548.14 364.712C567.438 380.967 594.74 385.98 619.573 377.828L626 375.719V360.827V345.935L620.704 349.933C613.188 355.608 606.961 358.084 598.667 358.695C584.658 359.727 572.306 355.426 563.228 346.355C551.149 334.284 546.949 314.088 552.913 296.752C562.958 267.557 597.448 257.845 621.394 277.467C623.766 279.41 625.997 281 626.353 281C626.709 281 627 274.311 627 266.137V251.273L621.23 248.684C618.057 247.26 612.787 245.398 609.52 244.547C601.195 242.379 585.416 242.608 576.161 245.032ZM907 312.529V379.058L920.25 378.779L933.5 378.5L933.768 354.25L934.036 330L944.268 329.992C967.556 329.975 981.087 324.744 988.593 312.853C993.759 304.669 995.275 291.681 992.56 278.869C988.583 260.106 976.412 249.224 956.893 246.98C952.277 246.449 939.163 246.012 927.75 246.008L907 246V312.529ZM1082.46 247.25C1082.2 247.938 1082.1 277.975 1082.24 314L1082.5 379.5L1095.75 379.779L1109 380.058V313.029V246H1095.97C1086.46 246 1082.81 246.338 1082.46 247.25ZM1193.43 247.321C1193.15 248.048 1193.05 253.11 1193.21 258.571L1193.5 268.5L1208.75 268.776L1224 269.052V324.526V380H1236.5H1249V324.5V269H1264H1279V257.5V246H1236.47C1202.14 246 1193.84 246.255 1193.43 247.321ZM1559 313V380H1593H1627V368.5V357H1606H1585V301.5V246H1572H1559V313ZM959.735 271.839C966.972 275.576 969.785 282.454 967.902 291.81C965.715 302.678 958.437 307 942.322 307H933V287.874V268.748L944.25 269.2C953.26 269.562 956.343 270.087 959.735 271.839ZM785.458 306.474C790.156 319.065 794 329.509 794 329.683C794 329.857 785.675 330 775.5 330C765.325 330 757 329.731 757 329.401C757 329.072 760.568 320.184 764.929 309.651C776.063 282.761 776.073 282.739 776.516 283.183C776.736 283.402 780.759 293.884 785.458 306.474ZM1418.31 306.5C1422.45 317.5 1426.14 327.288 1426.52 328.25C1427.17 329.879 1425.93 330 1408.61 330C1398.37 330 1390 329.676 1390 329.281C1390 328.534 1407.8 285.205 1408.78 283.579C1409.08 283.072 1409.66 283.522 1410.06 284.579C1410.46 285.636 1414.18 295.5 1418.31 306.5Z" fill="black"/>
</svg>
