<svg width="155" height="40" xmlns="http://www.w3.org/2000/svg"><g id="Symbols" stroke="none" stroke-width="1" fill="none" fill-rule="evenodd" opacity=".818"><g id="foot-home" transform="translate(-150 -98)" fill="#F8F4EA"><g id="Group-13" transform="translate(149 98)"><g id="tpc-logo-white" transform="translate(1)"><path id="Fill-1" d="M52.09 7.483V22.5h-1.614V7.483h-6.398L44.464 6h13.247l.414 1.483z"/><path d="M61.33 11.956h-1.708v4.469h1.731c1.916 0 2.816-.928 2.816-2.282 0-1.379-.923-2.187-2.839-2.187zm3.555 10.767l-3.555-5.015h-1.708v4.896h-1.546V10.577h3.323c2.724 0 4.317 1.355 4.317 3.518 0 1.783-1.062 2.97-2.724 3.423l3.486 4.872-1.593.333z" id="Fill-2"/><path id="Fill-4" d="M69.11 22.604h1.546V10.577h-1.547z"/><path d="M77.65 11.932h-1.662v4.659h1.639c1.754 0 2.885-.737 2.885-2.33 0-1.544-1.108-2.329-2.862-2.329m-.046 6.014h-1.616v4.658h-1.547V10.577h3.278c2.54 0 4.293 1.284 4.293 3.66 0 2.425-1.8 3.709-4.408 3.709" id="Fill-6"/><path id="Fill-7" d="M84.575 22.604V10.577h1.546v10.648H90.6l.208 1.379z"/><path id="Fill-8" d="M93.439 22.604V10.577h6.993v1.403h-5.447v3.66h4.409l.23 1.402h-4.639v4.16h5.609v1.402z"/><path d="M108.42 7.654h-3.001v6.584h2.816c2.424 0 3.9-1.094 3.9-3.375 0-2.116-1.292-3.209-3.715-3.209m-.254 8.033h-2.747v6.917h-1.593v-16.4h4.71c3.208 0 5.216 1.664 5.216 4.611 0 3.233-2.332 4.872-5.586 4.872" id="Fill-9"/><path d="M120.192 11.718c-2.378 0-3.878 2.02-3.878 4.873 0 2.828 1.523 4.872 3.878 4.872 2.377 0 3.854-2.02 3.854-4.872 0-2.805-1.5-4.873-3.854-4.873m-.023 11.1c-3.07 0-5.401-2.448-5.401-6.204 0-3.779 2.377-6.25 5.424-6.25 3.047 0 5.4 2.424 5.4 6.227 0 3.755-2.377 6.227-5.423 6.227" id="Fill-10"/><path id="Fill-11" d="M128.686 22.604h1.547V10.577h-1.547z"/><path id="Fill-12" d="M141.797 22.604l-6.37-9.698v9.698h-1.409V10.577h1.57l6.14 9.341v-9.34h1.408v12.026z"/><path id="Fill-13" d="M150.892 11.98v10.624h-1.547V11.98h-3.854l.38-1.403h8.614l.457 1.403z"/><path d="M70.576 34.873c-1.837 0-2.989-1.337-2.989-3.351 0-2.015 1.197-3.37 2.98-3.37.731 0 1.298.179 1.764.47l-.174 1.177c-.41-.32-.923-.574-1.535-.574-1.116 0-1.8.876-1.8 2.288 0 1.43.73 2.277 1.845 2.277.585 0 1.116-.217 1.6-.546l.165 1.073a3.392 3.392 0 01-1.856.556" id="Fill-14"/><path d="M80.557 29.592l-.86 2.504h1.72l-.86-2.504zm1.8 5.234l-.602-1.713h-2.386l-.576 1.647h-1.198l2.368-6.523h1.288l2.313 6.363-1.206.226z" id="Fill-15"/><path d="M90.776 29.263H90.2v2.099h.53c.777 0 1.234-.33 1.234-1.073 0-.678-.411-1.026-1.188-1.026m-.037 3.106h-.54v2.39h-1.206v-6.494h1.847c1.444 0 2.312.687 2.312 1.996 0 1.402-.969 2.108-2.413 2.108" id="Fill-16"/><path id="Fill-17" d="M98.681 34.76h1.216v-6.495H98.68z"/><path id="Fill-18" d="M108.525 29.348v5.412h-1.215v-5.412h-1.874v-1.083h4.9l.173 1.083z"/><path d="M117.601 29.592l-.859 2.504h1.719l-.86-2.504zm1.801 5.234l-.603-1.713h-2.386l-.576 1.647h-1.197l2.367-6.523h1.289l2.313 6.363-1.207.226z" id="Fill-19"/><path id="Fill-20" d="M126.038 34.76v-6.495h1.215v5.393h2.103l.164 1.102z"/><g id="Group-5"><path d="M19.857.127C8.907.127 0 9.07 0 20.066 0 31.056 8.907 40 19.857 40c10.952 0 19.859-8.944 19.859-19.934 0-10.996-8.907-19.94-19.86-19.94m18.892 19.94c0 10.455-8.474 18.962-18.891 18.962-10.418 0-18.89-8.507-18.89-18.962 0-10.461 8.472-18.97 18.89-18.97 10.417 0 18.89 8.509 18.89 18.97" id="Fill-21"/><path d="M25.825 19.443c-.198 0-.283-.15-.411-.407-.543-1.088-2.897-1.133-3.892-1.133h-.794v8.815c0 2.864.128 2.947.82 2.947h1.588v.719h-6.27v-.72h1.708c.28 0 .321-.126.321-.341v-11.42h-.7c-.996 0-3.35.045-3.893 1.133-.129.256-.218.407-.41.407-.151 0-.28-.082-.28-.256 0-.088.684-2.613 1.14-2.58h.139c.138.007.239.026.239.051h.006a.565.565 0 00.273.191.19.19 0 00.045.016c.361.102 2.198.198 4.361.198 2.244 0 4.05-.09 4.415-.178a.474.474 0 00.325-.195.269.269 0 01.172-.084h.236c.455-.032 1.14 2.493 1.14 2.58 0 .175-.131.257-.278.257m-8.369-6.694a1.1 1.1 0 011.096 1.103c0 .61-.492 1.105-1.096 1.105a1.1 1.1 0 01-1.1-1.105 1.1 1.1 0 011.1-1.103m2.382-3.928a1.104 1.104 0 010 2.208 1.104 1.104 0 010-2.208m2.428 3.95a1.1 1.1 0 011.1 1.105 1.1 1.1 0 01-1.1 1.105 1.103 1.103 0 01-1.099-1.105c0-.61.492-1.105 1.099-1.105m-2.41-10.095c-9.563 0-17.319 7.787-17.319 17.39 0 9.599 7.756 17.384 17.32 17.384 9.563 0 17.32-7.785 17.32-17.384 0-9.603-7.757-17.39-17.32-17.39" id="Fill-22"/></g></g></g></g></g></svg>